<?xml version="1.0" encoding="UTF-8" standalone="no"?>
<!-- Created with Inkscape (http://www.inkscape.org/) -->

<svg
   width="600"
   height="600"
   viewBox="0 0 158.75 158.75"
   version="1.1"
   id="svg839"
   sodipodi:docname="logo.svg"
   inkscape:export-filename="C:\Users\wages\Documents\GitHub\gray-duck-mail\assets\logo-600.png"
   inkscape:export-xdpi="96"
   inkscape:export-ydpi="96"
   inkscape:version="1.1.1 (3bf5ae0d25, 2021-09-20)"
   xmlns:inkscape="http://www.inkscape.org/namespaces/inkscape"
   xmlns:sodipodi="http://sodipodi.sourceforge.net/DTD/sodipodi-0.dtd"
   xmlns="http://www.w3.org/2000/svg"
   xmlns:svg="http://www.w3.org/2000/svg">
  <sodipodi:namedview
     id="namedview841"
     pagecolor="#ffffff"
     bordercolor="#666666"
     borderopacity="1.0"
     inkscape:pageshadow="2"
     inkscape:pageopacity="0.0"
     inkscape:pagecheckerboard="0"
     inkscape:document-units="mm"
     showgrid="false"
     inkscape:lockguides="false"
     inkscape:snap-global="false"
     fit-margin-top="0"
     fit-margin-left="0"
     fit-margin-right="0"
     fit-margin-bottom="0"
     units="px"
     inkscape:zoom="0.63333333"
     inkscape:cx="367.10526"
     inkscape:cy="214.73684"
     inkscape:window-width="1620"
     inkscape:window-height="1010"
     inkscape:window-x="-6"
     inkscape:window-y="-6"
     inkscape:window-maximized="1"
     inkscape:current-layer="layer1" />
  <defs
     id="defs836">
    <rect
       x="580.34827"
       y="408.49036"
       width="458.93768"
       height="251.96109"
       id="rect6397" />
    <inkscape:path-effect
       effect="fill_between_many"
       method="originald"
       linkedpaths="#path7955-1,0,1"
       id="path-effect11132"
       is_visible="true"
       lpeversion="0"
       join="true"
       close="true"
       autoreverse="true"
       applied="false" />
  </defs>
  <g
     inkscape:label="Layer 1"
     inkscape:groupmode="layer"
     id="layer1"
     transform="translate(-27.401141,-52.997079)">
    <g
       transform="scale(0.26458333)"
       id="text6395"
       style="font-size:40px;line-height:1.25;white-space:pre;shape-inside:url(#rect6397)" />
    <path
       style="fill:#778899;fill-opacity:1;stroke:#000000;stroke-width:8.12326;stroke-miterlimit:4;stroke-dasharray:none;stroke-opacity:1"
       d="m 78.734858,207.47621 c -21.704342,-3.17057 -34.2689,-24.56635 -36.507311,-43.31079 -1.342759,-11.24425 3.393175,-25.37357 15.166511,-30.40269 8.831904,-3.77265 15.288508,-14.11531 0.403749,-10.27103 C 47.416989,125.76319 22.938815,121.81322 34.442051,107.6778 41.392065,96.748547 51.696754,91.509515 54.261634,78.480564 59.768204,64.364327 76.85143,56.84755 91.037543,57.063459 c 12.131027,0.184631 23.920697,8.853292 30.875797,19.263035 10.21654,14.08671 2.2883,32.811376 -7.80709,45.537896 -12.87998,16.23683 19.75429,13.19328 31.23935,14.37151 24.48083,2.51144 21.86008,-13.72192 32.53836,-19.8973 7.73354,12.01934 3.95703,31.30132 -4.5893,43.46786 -7.05986,12.28284 -12.54154,27.31055 -27.94597,32.10182 -14.9281,4.55383 -28.28368,11.08689 -44.22494,14.21884 -7.307838,1.74343 -14.916671,1.72674 -22.388892,1.34909 z"
       id="path7955-1-0"
       sodipodi:nodetypes="cassscasssssssc" />
    <path
       style="stroke-width:0.27025"
       d="m 108.46732,146.82228 c -11.358909,-0.2943 -26.673129,4.9712 -24.431064,17.45076 3.969554,0.80415 5.900268,-4.29044 9.019038,-6.19656 6.44451,-3.93871 31.291156,-0.75236 19.973506,-10.79316 -1.39861,-0.2642 -2.93877,-0.41899 -4.56148,-0.46104 z"
       id="path11792"
       sodipodi:nodetypes="scacs" />
    <path
       style="fill:#000000;stroke-width:0.264583"
       id="path7863"
       d="" />
  </g>
</svg>
